<svg width="24" height="24" viewBox="0 0 34 33" fill="none" xmlns="http://www.w3.org/2000/svg">
<path d="M10.9898 21.2616C10.7559 20.9828 10.7697 20.5787 11.0079 20.3167L11.0784 20.249L22.0903 11.0089C22.3943 10.7538 22.8477 10.7934 23.1029 11.0975C23.3368 11.3762 23.3229 11.7804 23.0848 12.0424L23.0143 12.1101L12.0024 21.3502C11.6983 21.6053 11.2449 21.5657 10.9898 21.2616Z" fill="white"/>
<path d="M14.3388 11.5797C13.9433 11.5459 13.65 11.198 13.6838 10.8024C13.7144 10.4429 14.0048 10.1678 14.3545 10.1461L14.461 10.1474L22.6133 10.8429C22.9739 10.8737 23.2493 11.1657 23.2698 11.5164L23.2681 11.6232L22.538 19.7731C22.5026 20.1685 22.1534 20.4603 21.758 20.4249C21.3986 20.3927 21.1248 20.1012 21.1045 19.7514L21.1063 19.6449L21.7715 12.2138L14.3388 11.5797Z" fill="white"/>
</svg>
