<svg width="28" height="28" viewBox="0 0 28 28" fill="none" xmlns="http://www.w3.org/2000/svg">
    <path opacity="0.4"
          d="M13.9988 27.3309C12.9735 27.3309 11.9495 26.9416 11.1668 26.1643L10.1935 25.1909C9.81614 24.8149 9.31081 24.6069 8.77481 24.6056H7.40547C5.19214 24.6056 3.39081 22.8043 3.39081 20.5909V19.2203C3.38947 18.6856 3.18147 18.1803 2.80414 17.8003L1.84681 16.8443C0.278805 15.2856 0.272139 12.7376 1.83214 11.1683L2.80547 10.1936C3.18147 9.81627 3.38947 9.31093 3.39081 8.77493V7.40693C3.39081 5.19227 5.19214 3.39093 7.40547 3.39093H8.77614C9.31081 3.39093 9.81481 3.18293 10.1948 2.80293L11.1535 1.84693C12.7121 0.278933 15.2588 0.270933 16.8295 1.83227L17.8028 2.8056C18.1815 3.18293 18.6855 3.39093 19.2201 3.39093H20.5908C22.8041 3.39093 24.6055 5.19227 24.6055 7.40693V8.77627C24.6068 9.31093 24.8148 9.81627 25.1921 10.1963L26.1495 11.1536C26.9081 11.9083 27.3281 12.9136 27.3321 13.9869C27.3348 15.0536 26.9241 16.0576 26.1761 16.8163C26.1628 16.8296 26.1508 16.8443 26.1375 16.8563L25.1908 17.8029C24.8148 18.1803 24.6068 18.6856 24.6055 19.2216V20.5909C24.6055 22.8043 22.8041 24.6056 20.5908 24.6056H19.2201C18.6855 24.6069 18.1801 24.8149 17.8015 25.1923L16.8428 26.1496C16.0615 26.9363 15.0295 27.3309 13.9988 27.3309"
          fill="#393939"/>
    <path fill-rule="evenodd" clip-rule="evenodd"
          d="M11.3904 11.4012C11.1704 11.6212 10.8851 11.7399 10.5691 11.7399C10.2731 11.7399 9.9824 11.6185 9.74907 11.3999C9.52774 11.1799 9.4024 10.8785 9.4024 10.5732C9.4024 10.2825 9.52507 9.98387 9.74107 9.7532C9.85974 9.6332 10.0011 9.54253 10.1424 9.49453C10.5451 9.31053 11.0797 9.41853 11.3971 9.75187C11.5104 9.8652 11.5971 9.9892 11.6544 10.1185C11.7171 10.2572 11.7491 10.4145 11.7491 10.5732C11.7491 10.8905 11.6224 11.1852 11.3904 11.4012ZM18.254 9.7464C17.7993 9.29307 17.0593 9.29307 16.6047 9.7464L9.75134 16.5997C9.29667 17.0544 9.29667 17.7944 9.75134 18.2504C9.97267 18.4704 10.2647 18.5917 10.5767 18.5917C10.8887 18.5917 11.1807 18.4704 11.4007 18.2504L18.254 11.3971C18.7087 10.9411 18.7087 10.2024 18.254 9.7464ZM17.8744 16.3519C17.4424 16.1705 16.9304 16.2692 16.5891 16.6105C16.5184 16.6932 16.4184 16.8212 16.3504 16.9719C16.2784 17.1345 16.2691 17.3092 16.2691 17.4265C16.2691 17.5439 16.2784 17.7172 16.3504 17.8799C16.4171 18.0292 16.4971 18.1505 16.6024 18.2559C16.8437 18.4799 17.1237 18.5932 17.4357 18.5932C17.7317 18.5932 18.0224 18.4732 18.2611 18.2505C18.4731 18.0385 18.5891 17.7452 18.5891 17.4265C18.5891 17.1065 18.4731 16.8145 18.2597 16.6012C18.1424 16.4852 18.0011 16.3945 17.8744 16.3519Z"
          fill="#00F6FF"/>
</svg>
